<!--?xml version="1.0" standalone="no"?-->
              <svg id="sw-js-blob-svg" viewBox="0 0 100 100" xmlns="http://www.w3.org/2000/svg" version="1.1">
                    <defs> 
                        <linearGradient id="sw-gradient" x1="0" x2="1" y1="1" y2="0">
                            <stop id="stop1" stop-color="rgba(248, 117, 55, 1)" offset="0%"></stop>
                            <stop id="stop2" stop-color="rgba(251, 168, 31, 1)" offset="100%"></stop>
                        </linearGradient>
                    </defs>
                <path fill="url(#sw-gradient)" d="M1.6,-8.2C1.9,-2.3,1.8,-1.5,3.9,-0.7C6,0.2,10.3,1.1,13.7,4.4C17,7.7,19.5,13.4,18.2,16.7C16.8,20,11.6,21,8,17.8C4.3,14.7,2.1,7.4,-1.3,5.8C-4.7,4.2,-9.4,8.2,-10.3,8.3C-11.2,8.4,-8.4,4.6,-7.3,2C-6.2,-0.6,-6.7,-1.9,-8.8,-6.8C-10.9,-11.7,-14.6,-20.1,-13.4,-25.6C-12.2,-31.1,-6.1,-33.8,-2.7,-29.5C0.7,-25.3,1.3,-14.2,1.6,-8.2Z" width="100%" height="100%" transform="translate(50 50)" stroke-width="0" style="transition: all 0.3s ease 0s;"></path>
              </svg>