<svg xmlns="http://www.w3.org/2000/svg" version="1.1" xmlns:xlink="http://www.w3.org/1999/xlink" xmlns:svgjs="http://svgjs.com/svgjs"  x="0" y="0" viewBox="0 0 512 512" style="enable-background:new 0 0 512 512" xml:space="preserve"><g>
<g xmlns="http://www.w3.org/2000/svg">
	<g>
		<g>
			<path style="" d="M159.77,491.44c7.63,2.889,15.391,5.374,23.157,7.418c17.617,4.632,35.812,7.236,54.129,7.739     c2.165,0.052,4.329,0.081,6.499,0.081c35.592,0,69.762-7.672,101.481-22.768c9.886-4.635,19.597-10.096,28.818-16.197     c8.222-5.397,16.052-11.277,23.221-17.42c0.451-0.382,0.907-0.774,1.368-1.174c3.937,0.602,7.924,0.905,11.917,0.905     c25.075,0,48.047-11.496,63.029-31.539c20.712-27.715,20.665-65.633,0.796-93.166c4.415-18.266,6.649-37.047,6.649-55.946     c0-22.201-3.037-44.01-9.045-65.09h25.063c8.365,0,15.147-6.782,15.147-15.147V36.81c0-17.364-14.124-31.489-31.487-31.489     h-167.57c-16.789,0-30.553,13.209-31.443,29.78c-12.521-2.017-25.223-3.035-37.944-3.035c-32.77,0-64.467,6.549-94.263,19.47     H29.264C13.128,51.537,0,64.664,0,80.799v62.589c0,15.328,11.846,27.941,26.865,29.165C13.325,202.867,6.25,235.891,6.25,269.373     c0,31.177,5.932,61.392,17.632,89.88C23.882,359.253,58.779,455.193,159.77,491.44z" fill="#ffffff" data-original="#ffffff"></path>
		</g>
	</g>
	<g>
		<g>
			<g>
				<g>
					<path style="" d="M40.356,359.267c-11.865-27.164-18.96-58.363-18.96-89.895       c0-122.692,99.466-222.158,222.158-222.158c122.692,0,222.133,99.466,222.133,222.158c0,67.91-30.42,128.65-78.412,169.37       c-6.892,5.907-14.163,11.335-21.736,16.309c-8.583,5.68-17.57,10.754-26.937,15.147       c-28.805,13.708-61.043,21.332-95.048,21.332c-2.045,0-4.09-0.025-6.135-0.076c-17.47-0.48-34.409-2.979-50.642-7.245       c-10.174-2.676-19.004-5.622-28.547-9.661" fill="#F72585" data-original="#F72585"></path>
				</g>
			</g>
		</g>
		<g>
			<g>
				<g>
					<g>
						<path style="" d="M496.853,36.81v152.326H296.6V36.81c0-9.035,7.307-16.342,16.341-16.342h167.57        C489.546,20.469,496.853,27.776,496.853,36.81z" fill="#fcf2e9" data-original="#fcf2e9"></path>
					</g>
				</g>
				<g>
					<g>
						<path style="" d="M496.853,36.81v14.637H296.6V36.81c0-9.035,7.307-16.342,16.341-16.342h167.57        C489.546,20.469,496.853,27.776,496.853,36.81z" fill="#" data-original="#"></path>
					</g>
				</g>
				<g>
					<g>
						<g>
							<circle style="" cx="443.647" cy="36.949" r="4.967" fill="#fcf2e9" data-original="#fcf2e9"></circle>
						</g>
					</g>
					<g>
						<g>
							<circle style="" cx="459.541" cy="36.949" r="4.967" fill="#ffb4dc" data-original="#ffb4dc"></circle>
						</g>
					</g>
					<g>
						<g>
							<circle style="" cx="476.003" cy="36.949" r="4.967" fill="#b8b9fd" data-original="#b8b9fd"></circle>
						</g>
					</g>
				</g>
			</g>
			<g>
				<g>
					<g>
						<rect x="315.468" y="101.174" style="" width="23.494" height="63.192" fill="#" data-original="#"></rect>
					</g>
				</g>
				<g>
					<g>
						<rect x="362.457" y="89.022" style="" width="23.495" height="75.345" fill="#ffb4dc" data-original="#ffb4dc"></rect>
					</g>
				</g>
				<g>
					<g>
						<rect x="411.067" y="77.679" style="" width="23.494" height="86.687" fill="#b8b9fd" data-original="#"></rect>
					</g>
				</g>
				<g>
					<g>
						<rect x="460.053" y="105.232" style="" width="23.495" height="59.134" fill="#F72585" data-original="#F72585"></rect>
					</g>
				</g>
			</g>
		</g>
		<g>
			<g>
				<g>
					<g>
						<path style="" d="M369.507,248.925c0,0,27.106,22.876,20.556,36.983c-6.551,14.108-37.564-3.788-37.564-3.788        L369.507,248.925z" fill="#ffb4dc" data-original="#ffb4dc"></path>
					</g>
				</g>
				<g>
					<g>
						<path style="" d="M350.317,283.008c0,0,27.106,22.876,20.556,36.983c-6.551,14.108-37.564-3.789-37.564-3.789        L350.317,283.008z" fill="#ffb4dc" data-original="#ffb4dc"></path>
					</g>
				</g>
				<g>
					<g>
						<path style="" d="M331.989,315.045c0,0,27.106,22.876,20.555,36.983c-6.55,14.108-37.564-3.789-37.564-3.789        L331.989,315.045z" fill="#ffb4dc" data-original="#ffb4dc"></path>
					</g>
				</g>
				<g>
					<g>
						<path style="" d="M311.431,339.513c0,0,27.106,22.876,20.556,36.983c-6.551,14.108-37.564-3.788-37.564-3.788        L311.431,339.513z" fill="#ffb4dc" data-original="#ffb4dc"></path>
					</g>
				</g>
			</g>
			<g>
				<g>
					<g>
						<path style="" d="M276.992,467.58l-164.166-69.217c-2.977-1.255-4.373-4.687-3.118-7.664l123.845-293.73        c1.255-2.977,4.687-4.373,7.664-3.118l164.166,69.217c2.977,1.255,4.373,4.687,3.118,7.664l-123.844,293.73        C283.4,467.439,279.969,468.835,276.992,467.58z" fill="#040308" data-original="#040308"></path>
					</g>
				</g>
				<g>
					<g>
						
							<rect x="177.641" y="131.084" transform="matrix(0.9214 0.3885 -0.3885 0.9214 127.2174 -79.9455)" style="" width="167.325" height="287.069" fill="#" data-original="#"></rect>
					</g>
				</g>
				<g>
					<g>
						<path style="" d="M224.8,435.602c-0.686,0-1.367-0.137-2.015-0.41l-43.577-18.373        c-2.652-1.12-3.901-4.189-2.784-6.838l0.212-0.502c0.54-1.28,1.549-2.277,2.845-2.803c1.301-0.53,2.716-0.521,3.993,0.019        l43.577,18.373c2.652,1.12,3.901,4.189,2.784,6.838l-0.212,0.502c-0.54,1.28-1.549,2.277-2.845,2.803        C226.137,435.473,225.468,435.602,224.8,435.602z M223.058,434.542c1.108,0.467,2.331,0.471,3.453,0.016        c1.12-0.457,1.994-1.318,2.461-2.423l0.212-0.502c0.966-2.294-0.113-4.946-2.407-5.914l-43.577-18.373        c-1.108-0.464-2.331-0.469-3.453-0.016c-1.12,0.457-1.994,1.318-2.461,2.423l-0.212,0.502        c-0.966,2.294,0.113,4.946,2.407,5.914L223.058,434.542z" fill="#fcf2e9" data-original="#fcf2e9"></path>
					</g>
				</g>
				<g>
					<g>
						<g>
							<g>
								<path style="" d="M297.009,318.269c-0.217,0-0.438-0.042-0.651-0.13l-89.061-37.226          c-0.504-0.212-0.875-0.653-0.995-1.186c-0.12-0.535,0.024-1.091,0.389-1.499l23.934-26.684l21.166-45.861l-19.943-8.333          c-0.86-0.361-1.266-1.348-0.908-2.209c0.358-0.863,1.351-1.261,2.209-0.908l21.557,9.01          c0.422,0.177,0.757,0.519,0.922,0.945c0.167,0.427,0.153,0.903-0.04,1.32l-22.005,47.681          c-0.071,0.153-0.163,0.295-0.276,0.42l-22.517,25.105l86.868,36.309c0.86,0.361,1.266,1.348,0.908,2.209          C298.296,317.88,297.669,318.269,297.009,318.269z" fill="#fcf2e9" data-original="#fcf2e9"></path>
							</g>
						</g>
						<g>
							<g>
								<path style="" d="M302.049,291.313c-0.219,0-0.441-0.042-0.651-0.13l-67.15-28.066          c-0.804-0.337-1.221-1.23-0.959-2.06l12.272-39.294c0.141-0.455,0.467-0.827,0.898-1.028          c0.429-0.203,0.929-0.212,1.363-0.028l83.405,34.862c0.502,0.21,0.872,0.648,0.995,1.179          c0.12,0.528-0.019,1.084-0.377,1.492l-28.528,32.498C302.989,291.113,302.525,291.313,302.049,291.313z M236.969,260.595          L301.58,287.6l26.18-29.822l-79.53-33.24L236.969,260.595z" fill="#fcf2e9" data-original="#fcf2e9"></path>
							</g>
						</g>
						<g>
							<g>
								<path style="" d="M221.939,308.879c-1.546,0-3.093-0.309-4.564-0.922c-6.023-2.518-8.875-9.467-6.36-15.49          c2.52-6.025,9.469-8.863,15.49-6.358c6.023,2.518,8.875,9.467,6.358,15.49c-1.221,2.918-3.503,5.186-6.428,6.386          C224.984,308.582,223.462,308.879,221.939,308.879z M221.95,288.571c-3.312,0-6.464,1.957-7.821,5.198          c-1.799,4.307,0.243,9.274,4.547,11.072c4.302,1.801,9.271-0.238,11.07-4.543c1.801-4.307-0.238-9.274-4.542-11.072          C224.14,288.781,223.037,288.571,221.95,288.571z" fill="#fcf2e9" data-original="#fcf2e9"></path>
							</g>
						</g>
						<g>
							<g>
								<path style="" d="M274.228,330.736c-1.52,0-3.062-0.295-4.55-0.915c-6.023-2.52-8.873-9.469-6.358-15.49          c1.221-2.918,3.503-5.186,6.428-6.386c2.923-1.202,6.143-1.193,9.061,0.028c6.023,2.518,8.873,9.465,6.358,15.487          C283.271,327.997,278.862,330.736,274.228,330.736z M274.244,310.431c-1.089,0-2.178,0.212-3.213,0.636          c-2.091,0.858-3.725,2.48-4.594,4.566c-1.801,4.304,0.238,9.271,4.543,11.075c4.309,1.796,9.271-0.245,11.072-4.547          c0.872-2.086,0.879-4.387,0.021-6.478c-0.858-2.091-2.477-3.722-4.564-4.592C276.458,310.65,275.35,310.431,274.244,310.431          z" fill="#fcf2e9" data-original="#fcf2e9"></path>
							</g>
						</g>
					</g>
					<g>
						<g>
							<path style="" d="M272.009,391.742l-105.796-41.137c-2.401-0.934-3.59-3.637-2.657-6.038l6.897-17.739         c0.933-2.401,3.636-3.59,6.037-2.657l105.797,41.138c2.401,0.934,3.59,3.637,2.657,6.037l-6.897,17.738         C277.112,391.486,274.409,392.675,272.009,391.742z" fill="#" data-original="#"></path>
						</g>
					</g>
				</g>
			</g>
			<g>
				<g>
					<path style="" d="M195.569,433.25l-37.338,41.298C69.345,431.047,40.356,359.267,40.356,359.267       c13.733-13.506,25.95-26.324,31.504-34.604c12.951-19.237,47.31-76.443,73.842-100.804       c24.362-22.342,46.325-58.316,59.326-59.2c1.187-0.076,2.272,0.126,3.307,0.656c2.777,1.439,3.408,6.412,2.575,13.456       c-2.903,24.311-23.276,73.413-33.223,89.293c-10.275,16.334-11.487,77.377-24.841,116.582       c-3.383,9.947-7.573,18.505-12.875,24.564L195.569,433.25z" fill="#ffb4dc" data-original="#ffb4dc"></path>
				</g>
			</g>
		</g>
		<g>
			<g>
				<g>
					<path style="" d="M461.255,409.418c21.016-28.121,15.256-67.955-12.866-88.971       c-28.121-21.016-67.955-15.256-88.971,12.865c-19.766,26.448-15.841,63.252,8.09,85.022l-26.11,17.918l38.753-8.945       C407.434,442.072,442.133,435.006,461.255,409.418z" fill="#4CC9F0" data-original="#4CC9F0"></path>
				</g>
			</g>
			<g>
				<g>
					<g>
						
							<rect x="366.56" y="346.586" transform="matrix(0.801 0.5986 -0.5986 0.801 304.4706 -172.1728)" style="" width="89.344" height="50.678" fill="#fcf2e9" data-original="#fcf2e9"></rect>
					</g>
				</g>
				<g>
					<g>
						<path style="" d="M462.184,378.738c-0.007,0-0.016,0-0.026,0l-52.822-3.625        c-0.144-0.012-0.266-0.104-0.318-0.238l-18.743-49.859c-0.071-0.191,0.026-0.403,0.215-0.474        c0.186-0.078,0.401,0.026,0.474,0.215l18.66,49.637l52.586,3.609c0.203,0.014,0.354,0.191,0.342,0.394        C462.537,378.589,462.375,378.738,462.184,378.738z" fill="#040308" data-original="#040308"></path>
					</g>
				</g>
				<g>
					<g>
						<path style="" d="M406.043,367.008c-0.002,0-0.007,0-0.009,0l-45.762-1.16c-0.203-0.005-0.363-0.174-0.358-0.377        c0.005-0.2,0.17-0.358,0.368-0.358c0.002,0,0.007,0,0.009,0l45.762,1.16c0.203,0.005,0.363,0.174,0.358,0.377        C406.406,366.85,406.241,367.008,406.043,367.008z" fill="#040308" data-original="#040308"></path>
					</g>
				</g>
				<g>
					<g>
						<path style="" d="M431.848,419.332c-0.163,0-0.311-0.108-0.356-0.271l-11.6-43.115        c-0.052-0.198,0.064-0.398,0.259-0.453c0.205-0.047,0.398,0.066,0.453,0.259l11.6,43.115c0.052,0.198-0.064,0.398-0.259,0.453        C431.911,419.328,431.878,419.332,431.848,419.332z" fill="#040308" data-original="#040308"></path>
					</g>
				</g>
			</g>
		</g>
		<g>
			<g>
				<g>
					<g>
						<path style="" d="M45.956,293.014h-3.12c-0.578,0-1.046-0.468-1.046-1.046v-50.118        c0-0.578,0.468-1.046,1.046-1.046h3.12l23.175,25.058L45.956,293.014z" fill="#040308" data-original="#040308"></path>
					</g>
				</g>
				<g>
					<g>
						<path style="" d="M96.498,293.014H46.38c-0.578,0-1.046-0.468-1.046-1.046v-50.118        c0-0.578,0.468-1.046,1.046-1.046h50.118c0.578,0,1.046,0.468,1.046,1.046v50.117        C97.544,292.546,97.076,293.014,96.498,293.014z" fill="#4CC9F0" data-original="#4CC9F0"></path>
					</g>
				</g>
				<g>
					<g>
						<polygon style="" points="63.49,255.2 63.49,277.974 85.405,265.513       " fill="#ffffff" data-original="#ffffff"></polygon>
					</g>
				</g>
			</g>
			<g>
				<g>
					<g>
						<g>
							<path style="" d="M121.935,233.715h-3.471c-0.578,0-1.046-0.468-1.046-1.046v-50.118         c0-0.578,0.468-1.046,1.046-1.046h3.471l26.059,20.606L121.935,233.715z" fill="#040308" data-original="#040308"></path>
						</g>
					</g>
					<g>
						<g>
							<path style="" d="M172.126,233.715h-50.117c-0.578,0-1.046-0.468-1.046-1.046v-50.118         c0-0.578,0.468-1.046,1.046-1.046h50.118c0.578,0,1.046,0.468,1.046,1.046v50.118         C173.172,233.246,172.704,233.715,172.126,233.715z" fill="#" data-original="#"></path>
						</g>
					</g>
				</g>
				<g>
					<g>
						<path style="" d="M144.059,220.366c-0.035,0-0.071,0-0.106-0.002c-0.46-0.04-0.86-0.325-1.047-0.747        l-8.592-19.337c-0.283-0.636,0.002-1.381,0.641-1.664c0.627-0.29,1.384,0.002,1.664,0.641l7.661,17.239l19.353-29.03        c0.389-0.585,1.176-0.731,1.751-0.351c0.58,0.389,0.738,1.172,0.351,1.751l-20.626,30.939        C144.874,220.158,144.478,220.366,144.059,220.366z" fill="#ffffff" data-original="#ffffff"></path>
					</g>
				</g>
			</g>
		</g>
		<g>
			<g>
				<g>
					<g>
						<path style="" d="M29.263,66.683h172.871c7.796,0,14.116,6.32,14.116,14.116v62.589        c0,7.796-6.32,14.116-14.116,14.116h-35.682l11.595,26.67l-38.523-26.67H29.263c-7.796,0-14.116-6.32-14.116-14.116V80.799        C15.147,73.003,21.467,66.683,29.263,66.683z" fill="#fcf2e9" data-original="#fcf2e9"></path>
					</g>
				</g>
			</g>
			<g>
				<g>
					<g>
						<g>
							<path style="" d="M42.648,150.439c-0.523,0-0.948-0.424-0.948-0.948V76.871c0-0.523,0.424-0.948,0.948-0.948         s0.948,0.424,0.948,0.948v72.621C43.596,150.015,43.172,150.439,42.648,150.439z" fill="#4CC9F0" data-original="#"></path>
						</g>
					</g>
					<g>
						<g>
							<path style="" d="M72.298,150.439c-0.523,0-0.948-0.424-0.948-0.948V76.871c0-0.523,0.424-0.948,0.948-0.948         s0.948,0.424,0.948,0.948v72.621C73.246,150.015,72.822,150.439,72.298,150.439z" fill="#4CC9F0" data-original="#"></path>
						</g>
					</g>
					<g>
						<g>
							<path style="" d="M72.298,150.439c-0.523,0-0.948-0.424-0.948-0.948V76.871c0-0.523,0.424-0.948,0.948-0.948         s0.948,0.424,0.948,0.948v72.621C73.246,150.015,72.822,150.439,72.298,150.439z" fill="#4CC9F0" data-original="#4CC9F0"></path>
						</g>
					</g>
					<g>
						<g>
							<path style="" d="M101.948,150.439c-0.523,0-0.948-0.424-0.948-0.948V76.871c0-0.523,0.424-0.948,0.948-0.948         s0.948,0.424,0.948,0.948v72.621C102.896,150.015,102.472,150.439,101.948,150.439z" fill="#4CC9F0" data-original="#"></path>
						</g>
					</g>
					<g>
						<g>
							<path style="" d="M101.948,150.439c-0.523,0-0.948-0.424-0.948-0.948V76.871c0-0.523,0.424-0.948,0.948-0.948         s0.948,0.424,0.948,0.948v72.621C102.896,150.015,102.472,150.439,101.948,150.439z" fill="#" data-original="#"></path>
						</g>
					</g>
					<g>
						<g>
							<path style="" d="M131.598,150.439c-0.523,0-0.948-0.424-0.948-0.948V76.871c0-0.523,0.424-0.948,0.948-0.948         s0.948,0.424,0.948,0.948v72.621C132.546,150.015,132.121,150.439,131.598,150.439z" fill="#4CC9F0" data-original="#4CC9F0"></path>
						</g>
					</g>
					<g>
						<g>
							<path style="" d="M131.598,150.439c-0.523,0-0.948-0.424-0.948-0.948V76.871c0-0.523,0.424-0.948,0.948-0.948         s0.948,0.424,0.948,0.948v72.621C132.546,150.015,132.121,150.439,131.598,150.439z" fill="#4CC9F0" data-original="#"></path>
						</g>
					</g>
					<g>
						<g>
							<path style="" d="M161.248,150.439c-0.523,0-0.948-0.424-0.948-0.948V76.871c0-0.523,0.424-0.948,0.948-0.948         c0.523,0,0.948,0.424,0.948,0.948v72.621C162.196,150.015,161.771,150.439,161.248,150.439z" fill="#4361EE" data-original="#4361EE"></path>
						</g>
					</g>
					<g>
						<g>
							<path style="" d="M161.248,150.439c-0.523,0-0.948-0.424-0.948-0.948V76.871c0-0.523,0.424-0.948,0.948-0.948         c0.523,0,0.948,0.424,0.948,0.948v72.621C162.196,150.015,161.771,150.439,161.248,150.439z" fill="#4361EE" data-original="#4361EE"></path>
						</g>
					</g>
					<g>
						<g>
							<path style="" d="M190.898,150.439c-0.523,0-0.948-0.424-0.948-0.948V76.871c0-0.523,0.424-0.948,0.948-0.948         s0.948,0.424,0.948,0.948v72.621C191.846,150.015,191.421,150.439,190.898,150.439z" fill="#4361EE" data-original="#4361EE"></path>
						</g>
					</g>
				</g>
				<g>
					<g>
						<path style="" d="M75.278,144.848c-5.969,0-11.548-0.691-16.701-2.07c-11.937-3.199-21.935-10.386-27.427-19.721        c-0.266-0.45-0.116-1.032,0.335-1.297c0.45-0.262,1.03-0.118,1.297,0.335c5.243,8.911,14.825,15.782,26.286,18.854        c9.594,2.567,20.763,2.671,33.205,0.299c12.814-2.445,24.12-6.836,33.601-13.055c5.49-3.597,10.587-7.968,15.518-12.194        c5.063-4.342,10.299-8.83,16.006-12.534c15.563-10.096,35.013-14.288,53.343-11.518c0.516,0.078,0.872,0.561,0.794,1.077        c-0.08,0.519-0.594,0.86-1.077,0.794c-17.878-2.701-36.847,1.386-52.028,11.235c-5.603,3.635-10.789,8.081-15.806,12.383        c-4.976,4.264-10.122,8.675-15.714,12.34c-9.688,6.353-21.225,10.839-34.284,13.328        C86.543,144.268,80.747,144.848,75.278,144.848z" fill="#" data-original="#4361EE"></path>
					</g>
				</g>
			</g>
		</g>
		<g>
			<g>
				<g>
					<g>
						<polygon style="" points="61.556,216.096 70.583,218.874 61.556,221.651 58.779,230.678 56.002,221.651         46.974,218.874 56.002,216.096 58.779,207.069       " fill="#fcf2e9" data-original="#fcf2e9"></polygon>
					</g>
				</g>
			</g>
			<g>
				<g>
					<g>
						<polygon style="" points="54.938,316.819 63.966,319.596 54.938,322.373 52.161,331.401 49.384,322.373         40.356,319.596 49.384,316.819 52.161,307.791       " fill="#fcf2e9" data-original="#fcf2e9"></polygon>
					</g>
				</g>
			</g>
			<g>
				<g>
					<g>
						<polygon style="" points="95.272,182.38 104.299,185.158 95.272,187.935 92.495,196.962 89.718,187.935         80.69,185.158 89.718,182.38 92.495,173.353       " fill="#fcf2e9" data-original="#fcf2e9"></polygon>
					</g>
				</g>
			</g>
			<g>
				<g>
					<g>
						<polygon style="" points="252.345,67.418 261.373,70.195 252.345,72.973 249.568,82 246.791,72.973         237.763,70.195 246.791,67.418 249.568,58.391       " fill="#fcf2e9" data-original="#fcf2e9"></polygon>
					</g>
				</g>
			</g>
			<g>
				<g>
					<g>
						<polygon style="" points="411.734,220.855 420.762,223.632 411.734,226.409 408.957,235.437 406.18,226.409         397.152,223.632 406.18,220.855 408.957,211.828       " fill="#fcf2e9" data-original="#fcf2e9"></polygon>
					</g>
				</g>
			</g>
			<g>
				<g>
					<g>
						<polygon style="" points="411.734,295.624 420.762,298.401 411.734,301.178 408.957,310.206 406.18,301.178         397.152,298.401 406.18,295.624 408.957,286.596       " fill="#fcf2e9" data-original="#fcf2e9"></polygon>
					</g>
				</g>
			</g>
			<g>
				<g>
					<g>
						<polygon style="" points="325.395,423.676 334.423,426.453 325.395,429.231 322.618,438.258 319.841,429.231         310.814,426.453 319.841,423.676 322.618,414.649       " fill="#fcf2e9" data-original="#fcf2e9"></polygon>
					</g>
				</g>
			</g>
			<g>
				<g>
					<g>
						<polygon style="" points="223.985,468.366 233.012,471.143 223.985,473.92 221.208,482.948 218.431,473.92         209.403,471.143 218.431,468.366 221.208,459.338       " fill="#fcf2e9" data-original="#fcf2e9"></polygon>
					</g>
				</g>
			</g>
			<g>
				<g>
					<g>
						<polygon style="" points="451.075,254.049 463.299,257.81 451.075,261.57 447.315,273.794 443.554,261.57         431.33,257.81 443.554,254.049 447.315,241.825       " fill="#fcf2e9" data-original="#fcf2e9"></polygon>
					</g>
				</g>
			</g>
		</g>
	</g>
</g>















</g></svg>